<svg width="20px" height="20px" viewBox="0 0 20 20" xmlns="http://www.w3.org/2000/svg"> <g fill="none"> <path d="M12,8 L19,8 C19.5522847,8 20,8.44771525 20,9 L20,11 C20,11.5522847 19.5522847,12 19,12 L12,12 L12,19 C12,19.5522847 11.5522847,20 11,20 L9,20 C8.44771525,20 8,19.5522847 8,19 L8,12 L1,12 C0.44771525,12 0,11.5522847 0,11 L0,9 C0,8.44771525 0.44771525,8 1,8 L8,8 L8,1 C8,0.44771525 8.44771525,1.01453063e-16 9,0 L11,0 C11.5522847,-1.01453063e-16 12,0.44771525 12,1 L12,8 Z" fill="#FFFFFF"></path> </g> </svg>